# xmcd
#
# Track frame offsets: 
#        150
#        12862
#        25607
#        39935
#        51462
#        63555
#        78512
#        89860
#        103387
#        116555
#        129960
#        141960
#        152840
#        166255
#        178427
#        189812
#        202947
#        216847
#        227817
#        238692
#
# Disc length: 3442 seconds
#
# Revision: 2
# Processed by: cddbd v1.5.2PL0 Copyright (c) Steve Scherf et al.
# Submitted via: ExactAudioCopy v1.1
#
DISCID=190d7014
DTITLE=Glen Campbell - Glen Campbell's Greatest Hits
DYEAR=1982
DGENRE=Country
TTITLE0=Bonaparte's Retreat
TTITLE1=I Knew Jesus (Before He Was a Star)
TTITLE2=Glen Campbell and Bobbie Gentry - Rhinestone Cowboy
TTITLE3=All I Have to Do is Dream
TTITLE4=By The Time I Get To Phoenix
TTITLE5=Don't Pull Your Love -Then You Can Tell Me Goodbye
TTITLE6=True Grit
TTITLE7=Wichita Lineman
TTITLE8=Where's The Playground, Susie
TTITLE9=Southern Nights
TTITLE10=Galveston
TTITLE11=Try A Little Kindness
TTITLE12=Honey Come Back
TTITLE13=I Will Never Pass This Way Again
TTITLE14=Dreams Of The Everyday Housewife
TTITLE15=Gentle On My Mind
TTITLE16=Country Boy (You Got Your Feet in L.A.)
TTITLE17=It's Only Make Believe
TTITLE18=It's A Sin When You Love Somebody
TTITLE19=Amazing Grace
EXTD=
EXTT0=
EXTT1=
EXTT2=
EXTT3=
EXTT4=
EXTT5=
EXTT6=
EXTT7=
EXTT8=
EXTT9=
EXTT10=
EXTT11=
EXTT12=
EXTT13=
EXTT14=
EXTT15=
EXTT16=
EXTT17=
EXTT18=
EXTT19=
PLAYORDER=
